<?xml version="1.0" encoding="UTF-8" standalone="no"?>
<!-- Created with Inkscape (http://www.inkscape.org/) -->

<svg
   width="210mm"
   height="297mm"
   viewBox="0 0 210 297"
   version="1.1"
   id="svg12673"
   xml:space="preserve"
   inkscape:version="1.2.2 (b0a8486541, 2022-12-01)"
   sodipodi:docname="schlüssel.svg"
   xmlns:inkscape="http://www.inkscape.org/namespaces/inkscape"
   xmlns:sodipodi="http://sodipodi.sourceforge.net/DTD/sodipodi-0.dtd"
   xmlns="http://www.w3.org/2000/svg"
   xmlns:svg="http://www.w3.org/2000/svg"><sodipodi:namedview
     id="namedview12675"
     pagecolor="#ffffff"
     bordercolor="#000000"
     borderopacity="0.25"
     inkscape:showpageshadow="2"
     inkscape:pageopacity="0.0"
     inkscape:pagecheckerboard="0"
     inkscape:deskcolor="#d1d1d1"
     inkscape:document-units="mm"
     showgrid="false"
     inkscape:zoom="0.914906"
     inkscape:cx="435.56387"
     inkscape:cy="553.06228"
     inkscape:window-width="1711"
     inkscape:window-height="1327"
     inkscape:window-x="26"
     inkscape:window-y="23"
     inkscape:window-maximized="0"
     inkscape:current-layer="layer1" /><defs
     id="defs12670"><inkscape:path-effect
       effect="bspline"
       id="path-effect15676"
       is_visible="true"
       lpeversion="1"
       weight="33.333333"
       steps="2"
       helper_size="0"
       apply_no_weight="true"
       apply_with_weight="true"
       only_selected="false" /></defs><g
     inkscape:label="Layer 1"
     inkscape:groupmode="layer"
     id="layer1"><path
       style="fill:none;fill-opacity:1;fill-rule:evenodd;stroke:#000000;stroke-width:1.5;stroke-linecap:round;stroke-linejoin:bevel;paint-order:markers fill stroke"
       d="m 103.46176,182.14452 c -4.833974,-1.34571 -9.666522,-2.69103 -12.416085,-9.47438 -2.749563,-6.78335 -3.414904,-19.00439 6.455466,-25.78753 9.870369,-6.78314 30.275539,-8.12777 40.161979,3.34821 9.88644,11.47598 9.25348,35.77088 -2.58579,48.28965 -11.83927,12.51877 -34.88371,13.26017 -48.600913,3.56148 -13.717204,-9.69869 -18.105364,-29.83663 -15.616729,-45.70404 2.488635,-15.86741 11.853853,-27.4621 22.963492,-40.34591 11.10964,-12.8838 23.9626,-27.055424 28.01657,-41.643605 4.05396,-14.588181 -0.69115,-29.592036 -6.47908,-34.552253 -5.78794,-4.960216 -12.61807,0.12426 -17.12358,9.280374 -4.505506,9.156114 -6.686074,22.382987 -5.755884,35.480017 0.93019,13.09703 4.970885,26.063327 9.710574,47.049607 4.7397,20.98627 10.17802,49.99054 12.68098,70.51468 2.50295,20.52415 2.07031,32.5658 -2.44479,41.3907 -4.5151,8.82489 -13.112189,14.43228 -19.472721,15.80138 -6.360532,1.36911 -10.483987,-1.50049 -14.607991,-4.37046"
       id="path15674"
       inkscape:path-effect="#path-effect15676"
       inkscape:original-d="m 103.46176,182.14452 c -4.834025,-1.34553 -9.666572,-2.69085 -14.500307,-4.03669 -0.665091,-12.22105 -1.330433,-24.44209 -1.996053,-36.66367 20.40613,-1.3444 40.8113,-2.68903 61.21717,-4.03399 -0.63273,24.29664 -1.2657,48.59154 -1.89896,72.88764 -23.04554,0.74171 -46.08998,1.48311 -69.136044,2.22428 C 72.759409,192.38322 68.371249,172.24528 63.982561,152.10586 73.348613,140.51073 82.71383,128.91604 92.079353,117.32038 104.9331,103.14845 117.78606,88.976827 130.63901,74.804661 125.89388,59.800162 121.14877,44.796307 116.4031,29.791275 c -6.83015,5.084948 -13.66028,10.169424 -20.490825,15.253741 -2.180392,13.227663 -4.360961,26.454536 -6.541836,39.681408 4.041124,12.967087 8.081819,25.933386 12.122331,38.899686 5.43891,29.00626 10.87724,58.01053 16.31562,87.01624 -0.4324,12.04263 -0.86505,24.08428 -1.29798,36.12638 -8.59734,5.60799 -17.194429,11.21538 -25.792293,16.82283 -4.123437,-2.8695 -8.246894,-5.73909 -12.370859,-8.60912"
       sodipodi:nodetypes="ccccccccccccccccc" /></g></svg>
